<?xml version="1.0" encoding="UTF-8"?>
<!DOCTYPE svg PUBLIC "-//W3C//DTD SVG 1.1//EN" "http://www.w3.org/Graphics/SVG/1.1/DTD/svg11.dtd">
<svg xmlns="http://www.w3.org/2000/svg" version="1.1" width="20px" height="20px" style="shape-rendering:geometricPrecision; text-rendering:geometricPrecision; image-rendering:optimizeQuality; fill-rule:evenodd; clip-rule:evenodd" xmlns:xlink="http://www.w3.org/1999/xlink">
<g><path style="opacity:0.344" fill="#fefffe" d="M 8.5,-0.5 C 9.5,-0.5 10.5,-0.5 11.5,-0.5C 11.5,2.16667 11.5,4.83333 11.5,7.5C 14.1667,7.5 16.8333,7.5 19.5,7.5C 19.5,8.5 19.5,9.5 19.5,10.5C 16.8333,10.5 14.1667,10.5 11.5,10.5C 11.5,13.5 11.5,16.5 11.5,19.5C 10.5,19.5 9.5,19.5 8.5,19.5C 8.5,16.5 8.5,13.5 8.5,10.5C 5.5,10.5 2.5,10.5 -0.5,10.5C -0.5,9.5 -0.5,8.5 -0.5,7.5C 2.5,7.5 5.5,7.5 8.5,7.5C 8.5,4.83333 8.5,2.16667 8.5,-0.5 Z"/></g>
</svg>
